#format: frame checksums
#version: 1
#hash: MD5
#tb 0: 1001/30000
#stream#, dts,        pts, duration,     size, hash
0,          0,          0,        1,    63024, d2128e290be81bb0700ebe19e3faed4f
0,          1,          1,        1,    63024, dccaecb7e4ddb7e4224221a659af2a43
0,          2,          2,        1,    63024, be8e0966aaf3a9fe9164f63695dc3b62
0,          3,          3,        1,    63024, da944fadc3a239c2254678cadb4cf7fa
0,          4,          4,        1,    63024, 3c270f3c02fcbd192b7f896f3f9ee6d9
0,          5,          5,        1,    63024, 0b3ccda0a87c37e40104ae2f1060e8e9
0,          6,          6,        1,    63024, 254253aba91758f302e7177e614596be
0,          7,          7,        1,    63024, b1501a4e372a5249e74aab77e57a28f1
0,          8,          8,        1,    63024, c4497fea1cefed5cf2b2908620153d26
0,          9,          9,        1,    63024, 5ba20dfa2400b15b5394f315c5c3707d
